<?xml version="1.0" encoding="UTF-8" standalone="no"?>
<!-- Created with Inkscape (http://www.inkscape.org/) -->

<svg
   width="210mm"
   height="297mm"
   viewBox="0 0 210 297"
   version="1.1"
   id="svg5"
   inkscape:version="1.2.2 (732a01da63, 2022-12-09)"
   sodipodi:docname="kQiita.svg"
   inkscape:export-filename="kQiita.png"
   inkscape:export-xdpi="101.6"
   inkscape:export-ydpi="101.6"
   xmlns:inkscape="http://www.inkscape.org/namespaces/inkscape"
   xmlns:sodipodi="http://sodipodi.sourceforge.net/DTD/sodipodi-0.dtd"
   xmlns="http://www.w3.org/2000/svg"
   xmlns:svg="http://www.w3.org/2000/svg">
  <sodipodi:namedview
     id="namedview7"
     pagecolor="#ffffff"
     bordercolor="#000000"
     borderopacity="0.25"
     inkscape:showpageshadow="2"
     inkscape:pageopacity="0.0"
     inkscape:pagecheckerboard="0"
     inkscape:deskcolor="#d1d1d1"
     inkscape:document-units="mm"
     showgrid="true"
     inkscape:zoom="1.1893044"
     inkscape:cx="299.75505"
     inkscape:cy="536.44803"
     inkscape:window-width="2160"
     inkscape:window-height="1334"
     inkscape:window-x="-11"
     inkscape:window-y="-11"
     inkscape:window-maximized="1"
     inkscape:current-layer="layer1">
    <inkscape:grid
       type="xygrid"
       id="grid368" />
  </sodipodi:namedview>
  <defs
     id="defs2" />
  <g
     inkscape:label="Layer 1"
     inkscape:groupmode="layer"
     id="layer1"
     style="display:inline">
    <path
       style="display:inline;opacity:1;fill:#000000;fill-opacity:1;stroke-width:0.840828"
       d="m 724.79342,935.08893 c -42.5482,-14.2818 -81.71631,-32.93247 -124.97065,-59.50723 l -14.82223,-9.10653 -3.25556,1.15589 c -1.79056,0.63575 -9.6879,3.88781 -17.54964,7.22681 -50.85583,21.59924 -104.46931,31.98268 -165.07931,31.97131 C 323.55112,906.815 254.2372,887.74554 195.0087,850.67574 115.44951,800.8814 65.775176,717.45569 56.220748,617.58789 c -1.656206,-17.31151 -1.154441,-62.0218 0.872853,-77.77655 6.608833,-51.35937 23.770304,-97.86303 51.353779,-139.15697 28.45146,-42.59339 62.93046,-72.54177 111.84946,-97.15219 54.94252,-27.64077 114.18325,-40.74172 184.14125,-40.7224 53.90566,0.0149 101.46423,8.67576 147.99779,26.95185 58.75472,23.07597 106.01725,58.88517 138.8475,105.20002 31.61777,44.60436 50.49345,95.99298 56.76784,154.54921 1.48759,13.88309 1.50768,61.64752 0.0316,75.25407 -7.16322,66.03281 -28.46073,118.37817 -66.88124,164.3818 -3.28291,3.93087 -12.88505,14.19462 -21.33809,22.80833 -8.45301,8.61372 -15.36913,15.87082 -15.36913,16.12688 0,0.5517 14.61155,8.59549 32.79228,18.05245 22.51561,11.7118 55.71684,26.16326 77.35614,33.67071 12.32921,4.27745 12.61241,4.39537 12.61241,5.25138 0,1.42904 -25.61791,55.45573 -26.2843,55.43206 -0.11098,-0.004 -7.39084,-2.42027 -16.17749,-5.36961 z M 451.02955,834.20395 c 19.01238,-3.29312 42.97539,-9.56827 51.65515,-13.52686 2.3839,-1.08722 7.55053,-3.30894 11.4814,-4.93715 3.93086,-1.62821 11.44564,-4.87917 16.69949,-7.22435 5.25385,-2.34518 10.04859,-4.26396 10.65497,-4.26396 1.23809,0 20.37631,-14.55413 31.92388,-24.2773 56.32385,-47.42522 82.68918,-118.89299 77.84766,-211.01949 -1.89579,-36.07392 -7.38931,-63.23632 -18.41455,-91.04969 -18.13405,-45.74679 -43.85471,-77.94843 -82.97798,-103.88637 -30.78604,-20.41054 -63.75409,-32.73186 -104.26093,-38.96601 -15.03822,-2.31444 -51.66257,-3.20176 -71.04993,-1.72138 -80.06777,6.11383 -150.66147,45.72888 -187.64737,105.30202 -15.28417,24.61819 -26.23398,56.6251 -30.95407,90.48052 -4.02736,28.88669 -4.41845,72.97601 -0.88176,99.40472 10.4895,78.38509 43.55388,133.31791 102.60816,170.47209 32.8492,20.66717 61.11124,30.19961 110.14842,37.15172 3.00596,0.42616 20.03272,0.66935 37.83724,0.54042 30.70149,-0.22232 33.04051,-0.35024 45.33022,-2.47893 z"
       id="path2475"
       transform="scale(0.26458333)" />
    <path
       style="display:inline;opacity:1;fill:#030000;fill-opacity:1;stroke-width:0.840828"
       d="m 260.23615,544.43589 v -24.384 h 7.98786 7.98787 v 24.384 24.384 h -7.98787 -7.98786 z"
       id="path2477"
       transform="scale(0.26458333)" />
    <path
       style="display:inline;opacity:1;fill:#000000;fill-opacity:1;stroke-width:0.840828"
       d="m 260.23615,505.75782 v -4.20414 h 7.98786 7.98787 v 4.20414 4.20414 h -7.98787 -7.98786 z"
       id="path2479"
       transform="scale(0.26458333)" />
    <path
       style="display:inline;opacity:1;fill:#000000;fill-opacity:1;stroke-width:0.840828"
       d="m 470.44306,504.07616 v -4.20413 h 7.98786 7.98786 v 4.20413 4.20414 h -7.98786 -7.98786 z"
       id="path2481"
       transform="scale(0.26458333)" />
    <path
       style="display:inline;opacity:1;fill:#000000;fill-opacity:1;stroke-width:0.840828"
       d="m 470.44306,544.43589 v -25.22483 h 7.98786 7.98786 v 25.22483 25.22483 h -7.98786 -7.98786 z"
       id="path2483"
       transform="scale(0.26458333)" />
    <path
       style="display:inline;opacity:1;fill:#000000;fill-opacity:1;stroke-width:0.149058"
       d="m 157.85794,150.46162 v -12.6714 h 1.34926 1.34926 v 7.39049 7.39048 l 3.51623,-3.87064 3.51622,-3.87066 1.56126,0.004 1.56125,0.004 -3.02199,3.24256 c -1.6621,1.78339 -3.02024,3.35546 -3.01809,3.4935 0.002,0.13806 1.50091,2.74272 3.33058,5.78818 l 3.32666,5.53721 -0.73466,0.10182 c -0.40406,0.0561 -1.06409,0.10887 -1.46674,0.11731 l -0.73207,0.0158 -1.81263,-3.08964 c -2.71813,-4.63307 -3.77507,-6.2966 -4.00066,-6.2966 -0.11197,0 -0.61349,0.43354 -1.11447,0.96342 l -0.91089,0.96342 v 3.7297 3.7297 h -1.34926 -1.34926 z"
       id="path2485" />
    <path
       style="display:inline;opacity:1;fill:#000000;fill-opacity:1;stroke-width:0.840828"
       d="m 390.56443,727.40377 c -7.47247,-0.88631 -7.79798,-1.0029 -5.04496,-1.80696 2.02834,-0.59241 3.02443,-1.42375 3.20527,-2.67512 0.2327,-1.61031 -0.19512,-1.85145 -3.78373,-2.13265 l -4.04609,-0.31706 3.99393,-0.15156 c 2.78074,-0.10552 3.99393,-0.50734 3.99393,-1.32284 0,-1.84171 -2.34382,-2.49674 -10.93076,-3.05483 l -7.98786,-0.51915 10.08993,-0.1332 c 11.25257,-0.14854 21.29524,1.00893 22.92899,2.64269 0.59183,0.59183 1.30862,3.03967 1.59286,5.43964 0.46163,3.89775 0.34722,4.36481 -1.07176,4.37506 -0.87372,0.006 -2.34532,0.14467 -3.27023,0.30745 -0.92491,0.16279 -5.27619,-0.13038 -9.66952,-0.65147 z"
       id="path2489"
       transform="scale(0.26458333)" />
    <path
       style="display:inline;opacity:1;fill:#000000;fill-opacity:1;stroke-width:0.148639"
       d="m 404.55475,722.86185 c -0.19134,-1.51488 -0.80179,-3.79995 -1.19558,-4.47533 -0.34036,-0.58376 -0.83294,-0.92425 -1.85404,-1.2816 -2.47114,-0.86481 -7.39853,-1.48644 -14.1526,-1.78545 -3.35165,-0.14838 -17.42095,-0.0506 -17.25046,0.11992 0.0392,0.0392 1.26106,0.14627 2.7153,0.23798 2.30226,0.1452 1.1357,0.16798 -9.02408,0.17624 -15.03983,0.0122 -18.20394,0.19509 -22.74891,1.31471 -3.53332,0.87041 -5.11141,1.01393 -11.73527,1.06727 l -5.87123,0.0473 1.5607,-0.52039 c 3.25028,-1.08374 5.97929,-1.60632 11.14791,-2.1347 15.23246,-1.55718 41.40052,-1.72759 56.55703,-0.3683 4.68779,0.42042 8.29466,1.04981 9.85903,1.72038 1.85605,0.7956 2.11232,1.34499 2.21978,4.75886 0.0433,1.37692 0.0491,2.50349 0.0128,2.50349 -0.0363,0 -0.14447,-0.62116 -0.24036,-1.38036 z"
       id="path2491"
       transform="scale(0.26458333)" />
    <path
       style="display:inline;opacity:1;fill:#000000;fill-opacity:1;stroke-width:0.148639"
       d="m 404.47316,721.97547 c -0.13621,-0.98284 -0.83152,-3.25082 -1.15915,-3.78093 -0.75156,-1.21605 -4.28138,-2.05948 -11.13072,-2.65963 -4.88808,-0.42829 -22.64157,-0.46684 -21.97991,-0.0477 0.11239,0.0712 0.60566,0.14247 1.09617,0.15841 0.49051,0.0159 -4.0244,0.0757 -10.03312,0.13281 -13.52668,0.12856 -15.65004,0.26878 -20.28918,1.33977 -3.53209,0.81541 -4.45283,0.89896 -10.85063,0.98456 -3.27005,0.0438 -5.91211,0.0455 -5.87123,0.004 0.13608,-0.13854 3.62129,-1.12242 5.05895,-1.42815 3.80316,-0.80878 11.13238,-1.4805 21.32442,-1.9544 5.5667,-0.25883 21.80788,-0.35102 27.79545,-0.15778 15.3054,0.49396 22.89625,1.43035 25.17287,3.10528 0.73347,0.53961 0.94321,1.19008 1.02831,3.18911 0.075,1.76131 -5.9e-4,2.28088 -0.16223,1.11479 z"
       id="path2493"
       transform="scale(0.26458333)" />
    <path
       style="display:inline;opacity:1;fill:#000000;fill-opacity:1;stroke-width:0.148639"
       d="m 404.3919,721.63142 c -0.32173,-1.74608 -0.8776,-3.26578 -1.37097,-3.74815 -1.10668,-1.08198 -4.64409,-1.81219 -11.72947,-2.42126 -2.46934,-0.21227 -14.47412,-0.35434 -18.18486,-0.2152 -2.83355,0.10625 -3.67582,0.29847 -1.80705,0.41241 0.49051,0.0299 -2.72009,0.0677 -7.13466,0.084 -14.85492,0.0549 -18.381,0.2644 -23.18764,1.37769 -3.49734,0.81003 -4.44885,0.89612 -10.85063,0.98178 -3.27005,0.0438 -5.91211,0.0455 -5.87123,0.004 0.14801,-0.15068 3.68306,-1.14767 5.11134,-1.44155 6.24133,-1.2842 18.10749,-2.04215 34.2036,-2.18473 16.9595,-0.15024 29.55286,0.48332 36.1783,1.82009 2.81492,0.56795 4.14062,1.22604 4.58485,2.27594 0.21007,0.49647 0.47946,4.03082 0.30724,4.03082 -0.038,0 -0.14994,-0.4391 -0.24882,-0.97577 z"
       id="path2495"
       transform="scale(0.26458333)" />
    <path
       style="display:inline;opacity:1;fill:#000000;fill-opacity:1;stroke-width:0.148639"
       d="m 341.42316,728.84527 c -7.89818,-0.22326 -17.24623,-1.33115 -20.0346,-2.37441 -2.15979,-0.80808 -1.76844,-1.93941 0.91992,-2.65934 4.51714,-1.20965 14.86843,-2.00165 35.16767,-2.69075 4.90507,-0.16651 12.39647,-0.43569 16.64753,-0.59816 4.25107,-0.16248 8.73253,-0.32326 9.9588,-0.3573 l 2.22958,-0.0619 -2.74982,0.17783 c -3.07269,0.19871 -2.9881,0.24554 1.04047,0.57615 1.26715,0.10399 2.03635,0.20502 1.70935,0.22451 -0.32701,0.0195 -1.53098,0.10308 -2.6755,0.18576 -3.93329,0.28413 -11.10151,0.5914 -22.59309,0.96849 -10.23683,0.33591 -18.39076,0.75377 -20.51214,1.05118 -1.06415,0.14919 -2.43394,0.66958 -2.89419,1.09951 -0.92087,0.86022 -0.35873,1.97996 1.23601,2.46203 1.8656,0.56396 7.11583,0.80653 17.4882,0.80802 14.23091,0.002 21.9118,-0.43121 26.28132,-1.4824 1.49972,-0.36079 1.6074,-0.36579 1.35609,-0.063 -0.16097,0.19395 -0.15837,0.25659 0.0151,0.36379 0.21312,0.13171 1.43123,0.35792 3.04141,0.56481 l 0.89183,0.11459 -1.5607,0.11067 c -0.85839,0.0609 -2.43024,0.20549 -3.49301,0.3214 -8.71158,0.95008 -29.7714,1.58918 -41.47021,1.25849 z"
       id="path2497"
       transform="scale(0.26458333)" />
    <path
       style="display:inline;opacity:1;fill:#000000;fill-opacity:1;stroke-width:0.148639"
       d="m 395.00742,727.79843 c -5.44069,-0.53164 -10.32667,-1.18501 -10.78666,-1.44244 -0.20879,-0.11684 -0.13924,-0.18158 0.39898,-0.37139 0.35852,-0.12644 1.07242,-0.37864 1.58646,-0.56044 1.81122,-0.64061 2.55886,-1.50312 2.59276,-2.99111 0.014,-0.61385 -0.045,-0.81273 -0.30275,-1.02147 -0.38155,-0.30896 -1.72503,-0.56098 -3.67244,-0.6889 -0.78142,-0.0513 -1.45577,-0.14997 -1.49856,-0.2192 -0.0428,-0.0692 0.51142,-0.12638 1.23157,-0.127 1.58356,-10e-4 3.05883,-0.22246 3.7619,-0.56381 0.44169,-0.21444 0.52731,-0.33845 0.56705,-0.82134 0.15677,-1.90481 -2.19694,-2.52523 -12.16087,-3.20552 l -3.79029,-0.25878 4.31053,-0.12219 c 12.32253,-0.34929 23.84889,0.82613 25.63716,2.6144 0.83524,0.83523 1.60123,3.99909 1.74054,7.18912 0.10256,2.34851 0.085,2.37619 -1.58888,2.5094 -2.1623,0.17207 -6.63141,0.21699 -8.0265,0.0807 z"
       id="path2499"
       transform="scale(0.26458333)" />
    <text
       xml:space="preserve"
       style="font-style:normal;font-variant:normal;font-weight:normal;font-stretch:normal;font-size:26.8563px;line-height:0;font-family:Arial;-inkscape-font-specification:Arial;opacity:1;fill:#000000;fill-opacity:1;stroke-width:0.139876"
       x="103.87667"
       y="152.56628"
       id="text4845"
       transform="scale(0.87627144,1.1411989)"><tspan
         sodipodi:role="line"
         style="fill:#000000;fill-opacity:1;stroke-width:0.139876"
         x="103.87667"
         y="152.56628"
         id="tspan4847">t</tspan></text>
  </g>
</svg>

